<svg xmlns="http://www.w3.org/2000/svg" width="900" height="650" viewBox="0 0 900 650" font-family="monospace">
  <rect width="900" height="650" fill="#0d1117"/>
  <rect x="20" y="15" width="860" height="36" rx="6" fill="#161b22"/>
  <text x="450" y="40" text-anchor="middle" fill="#58a6ff" font-size="14" font-weight="bold">N O S Q L H U N T E R &amp;nbsp; A R C H I T E C T U R E</text>

  <rect x="250" y="65" width="400" height="42" rx="21" fill="#21262d" stroke="#30363d" stroke-width="1"/>
  <text x="450" y="91" text-anchor="middle" fill="#58a6ff" font-size="13" font-weight="bold">CLI LAYER</text>
  <text x="450" y="103" text-anchor="middle" fill="#8b949e" font-size="9">--url --proxy --dataset --depth --verbose --output</text>

  <line x1="450" y1="107" x2="450" y2="125" stroke="#30363d" stroke-width="2"/>
  <polygon points="445,125 455,125 450,133" fill="#30363d"/>

  <rect x="150" y="135" width="600" height="60" rx="8" fill="#1c2128" stroke="#58a6ff" stroke-width="1"/>
  <text x="450" y="160" text-anchor="middle" fill="#58a6ff" font-size="14" font-weight="bold">CORE ENGINE</text>
  <text x="450" y="180" text-anchor="middle" fill="#8b949e" font-size="10">Session Management · Thread Pool · Response Analysis · Timeline · Reports</text>

  <line x1="150" y1="195" x2="150" y2="215" stroke="#30363d" stroke-width="2"/>
  <line x1="450" y1="195" x2="450" y2="215" stroke="#30363d" stroke-width="2"/>
  <line x1="750" y1="195" x2="750" y2="215" stroke="#30363d" stroke-width="2"/>
  <polygon points="145,215 155,215 150,223" fill="#30363d"/>
  <polygon points="445,215 455,215 450,223" fill="#30363d"/>
  <polygon points="745,215 755,215 750,223" fill="#30363d"/>

  <text x="150" y="213" text-anchor="middle" fill="#8b949e" font-size="9">DISCOVERY</text>
  <text x="450" y="213" text-anchor="middle" fill="#8b949e" font-size="9">EXPLOITATION</text>
  <text x="750" y="213" text-anchor="middle" fill="#8b949e" font-size="9">PAYLOADS</text>

  <rect x="30" y="225" width="240" height="180" rx="8" fill="#161b22" stroke="#30363d" stroke-width="1"/>
  <rect x="30" y="225" width="240" height="4" rx="2" fill="#f78166"/>
  <text x="50" y="255" fill="#f78166" font-size="12" font-weight="bold">HELLHOUND SPIDER</text>
  <line x1="40" y1="265" x2="260" y2="265" stroke="#21262d" stroke-width="1"/>
  <text x="40" y="285" fill="#8b949e" font-size="10">robots.txt &amp; sitemap.xml extraction</text>
  <text x="40" y="305" fill="#8b949e" font-size="10">JavaScript API route mining</text>
  <text x="40" y="325" fill="#8b949e" font-size="10">HTML link &amp; form extraction</text>
  <text x="40" y="345" fill="#8b949e" font-size="10">Parameter enumeration</text>
  <text x="40" y="365" fill="#8b949e" font-size="10">Security tag classification</text>
  <text x="40" y="385" fill="#8b949e" font-size="10">Endpoint discovery &amp; mapping</text>
  <rect x="165" y="393" width="95" height="10" rx="5" fill="#21262d"/>
  <text x="212" y="401" text-anchor="middle" fill="#d29922" font-size="8">endpoints + params</text>

  <rect x="330" y="225" width="240" height="180" rx="8" fill="#161b22" stroke="#30363d" stroke-width="1"/>
  <rect x="330" y="225" width="240" height="4" rx="2" fill="#bc8cff"/>
  <text x="350" y="255" fill="#bc8cff" font-size="12" font-weight="bold">ATTACK MODULES</text>
  <line x1="340" y1="265" x2="560" y2="265" stroke="#21262d" stroke-width="1"/>
  <text x="345" y="285" fill="#8b949e" font-size="10">Auth Bypass ($ne, $regex, $gt)</text>
  <text x="345" y="305" fill="#8b949e" font-size="10">Query Injection (blank query)</text>
  <text x="345" y="325" fill="#8b949e" font-size="10">GET Parameter Injection</text>
  <text x="345" y="345" fill="#8b949e" font-size="10">$where JS Tautology &amp; Code Exec</text>
  <text x="345" y="365" fill="#8b949e" font-size="10">Blind Regex Extraction</text>
  <text x="345" y="385" fill="#8b949e" font-size="10">Logical Ops ($or, $and, $nor)</text>
  <rect x="470" y="393" width="90" height="10" rx="5" fill="#21262d"/>
  <text x="515" y="401" text-anchor="middle" fill="#d29922" font-size="8">vulnerabilities</text>

  <rect x="630" y="225" width="240" height="180" rx="8" fill="#161b22" stroke="#30363d" stroke-width="1"/>
  <rect x="630" y="225" width="240" height="4" rx="2" fill="#79c0ff"/>
  <text x="650" y="255" fill="#79c0ff" font-size="12" font-weight="bold">PAYLOAD DATASET</text>
  <line x1="640" y1="265" x2="860" y2="265" stroke="#21262d" stroke-width="1"/>
  <text x="645" y="285" fill="#8b949e" font-size="10">6,000+ payloads · 50+ categories</text>
  <text x="645" y="305" fill="#8b949e" font-size="10">Sources: PayloadsAllTheThings</text>
  <text x="645" y="325" fill="#8b949e" font-size="10">HackTricks · PortSwigger · OWASP</text>
  <text x="645" y="345" fill="#8b949e" font-size="10">Supported: MongoDB, CouchDB</text>
  <text x="645" y="365" fill="#8b949e" font-size="10">Redis, Elasticsearch, DynamoDB</text>
  <text x="645" y="385" fill="#8b949e" font-size="10">Firebase, Cassandra + 9 more</text>
  <rect x="765" y="393" width="95" height="10" rx="5" fill="#21262d"/>
  <text x="812" y="401" text-anchor="middle" fill="#d29922" font-size="8">targeted payloads</text>

  <line x1="150" y1="405" x2="150" y2="435" stroke="#30363d" stroke-width="2"/>
  <line x1="450" y1="405" x2="450" y2="435" stroke="#30363d" stroke-width="2"/>
  <line x1="750" y1="405" x2="750" y2="435" stroke="#30363d" stroke-width="2"/>
  <polygon points="145,435 155,435 150,443" fill="#30363d"/>
  <polygon points="445,435 455,435 450,443" fill="#30363d"/>
  <polygon points="745,435 755,435 750,443" fill="#30363d"/>

  <text x="150" y="433" text-anchor="middle" fill="#8b949e" font-size="9">endpoints</text>
  <text x="450" y="433" text-anchor="middle" fill="#8b949e" font-size="9">findings</text>
  <text x="750" y="433" text-anchor="middle" fill="#8b949e" font-size="9">payloads</text>

  <rect x="250" y="445" width="400" height="55" rx="8" fill="#161b22" stroke="#30363d" stroke-width="1"/>
  <rect x="250" y="445" width="400" height="3" rx="1.5" fill="#d29922"/>
  <text x="450" y="468" text-anchor="middle" fill="#d29922" font-size="13" font-weight="bold">RESPONSE ANALYZER &amp; REPORTING</text>
  <text x="450" y="488" text-anchor="middle" fill="#8b949e" font-size="10">Scoring Engine · Baseline Comparison · Severity (Crit/High/Med) · JSON Report</text>

  <line x1="450" y1="500" x2="450" y2="515" stroke="#f78166" stroke-width="2"/>
  <polygon points="445,515 455,515 450,523" fill="#f78166"/>

  <rect x="180" y="525" width="540" height="55" rx="8" fill="none" stroke="#f78166" stroke-width="2" stroke-dasharray="8,4"/>
  <rect x="180" y="525" width="540" height="55" rx="8" fill="#f78166" opacity="0.03"/>
  <text x="450" y="550" text-anchor="middle" fill="#f78166" font-size="14" font-weight="bold">TARGET WEB APPLICATION</text>
  <text x="450" y="570" text-anchor="middle" fill="#8b949e" font-size="11">POST /api/login · GET /api/search · POST /api/data · $where injection points</text>

  <rect x="30" y="600" width="840" height="40" rx="6" fill="#161b22" stroke="#30363d" stroke-width="1"/>
  <text x="50" y="618" fill="#8b949e" font-size="11" font-weight="bold">PIPELINE:</text>
  <rect x="120" y="607" width="24" height="16" rx="4" fill="#1c2128"/>
  <text x="132" y="619" text-anchor="middle" fill="#58a6ff" font-size="10" font-weight="bold">1</text>
  <text x="150" y="619" fill="#8b949e" font-size="10">CLI → Core Engine</text>
  <rect x="280" y="607" width="24" height="16" rx="4" fill="#1c2128"/>
  <text x="292" y="619" text-anchor="middle" fill="#bc8cff" font-size="10" font-weight="bold">2</text>
  <text x="310" y="619" fill="#8b949e" font-size="10">Spider → Attack with payloads</text>
  <rect x="480" y="607" width="24" height="16" rx="4" fill="#1c2128"/>
  <text x="492" y="619" text-anchor="middle" fill="#d29922" font-size="10" font-weight="bold">3</text>
  <text x="510" y="619" fill="#8b949e" font-size="10">Analyze → Score → Report</text>
</svg>
